<svg xmlns="http://www.w3.org/2000/svg" xmlns:xlink="http://www.w3.org/1999/xlink" viewBox="0 0 142.47 35.81"><defs><style>.cls-1{fill:#e6e7e8;}.cls-2{fill:gray;}.cls-3{fill:url(#linear-gradient);}.cls-4{fill:url(#radial-gradient);}.cls-5{fill:url(#linear-gradient-2);}.cls-6{fill:url(#radial-gradient-2);}.cls-7{font-size:17.77px;fill:#0f0508;font-family:MADEEvolveSansEVO-Thin, MADE Evolve Sans EVO;letter-spacing:0.05em;}.cls-8{letter-spacing:0.04em;}.cls-9{letter-spacing:0.03em;}</style><linearGradient id="linear-gradient" x1="-29.31" y1="-2.59" x2="-29.52" y2="21.23" gradientTransform="matrix(1, 0, 0.23, 1, 63.49, 0)" gradientUnits="userSpaceOnUse"><stop offset="0" stop-color="#fff"/><stop offset="0.4" stop-color="#a5cd39"/><stop offset="0.71" stop-color="#3d9842"/><stop offset="1" stop-color="#006231"/></linearGradient><radialGradient id="radial-gradient" cx="-61.97" cy="20.76" r="11.99" gradientTransform="matrix(1, 0, 0.4, 1, 108.99, 0)" xlink:href="#linear-gradient"/><linearGradient id="linear-gradient-2" x1="-42.11" y1="-1.18" x2="-35.6" y2="17.34" gradientTransform="matrix(1, 0, 0.23, 1, 63.49, 0)" gradientUnits="userSpaceOnUse"><stop offset="0" stop-color="#fff"/><stop offset="0.4" stop-color="#ee4023"/><stop offset="0.68" stop-color="#ed3024"/><stop offset="1" stop-color="#ad1b1f"/></linearGradient><radialGradient id="radial-gradient-2" cx="-100.38" cy="17.44" r="12.55" gradientTransform="matrix(1, 0, 0.4, 1, 108.99, 0)" xlink:href="#linear-gradient-2"/></defs><title>Varlık 4</title><g id="katman_2" data-name="katman 2"><g id="Layer_4" data-name="Layer 4"><path class="cls-1" d="M14.49,28.83c-.75.14-1.52.24-2.29.32,3.42,1.56,7.1,2.27,10.34,1.46,8.76-2.19,15.2-21,26.5-19.92h0C43,8.2,37.59,9.41,34.06,12.82,30.19,16.57,28,21.3,24.89,24A23.73,23.73,0,0,1,14.49,28.83Z"/><path class="cls-1" d="M24.81,24l.08-.06Z"/><path class="cls-1" d="M.8,18.22a11.42,11.42,0,0,0,1.36,2.67,24.58,24.58,0,0,0,9.37,8l.67.31c.77-.08,1.53-.2,2.29-.32A23.73,23.73,0,0,0,24.89,24l-.08.06A10.77,10.77,0,0,1,21,26.21a5.29,5.29,0,0,1-.54.13,4.39,4.39,0,0,1-.91.09A13.32,13.32,0,0,1,13,24a16.89,16.89,0,0,1-5.15-4.91c-1.24-2-1.47-4,.18-5.47,2.65-2.37,14.85,1.53,15.65,1.78h0C23.1,15.1,15.58,11,9,10.57a13.31,13.31,0,0,0-3.65.2,7.79,7.79,0,0,0-2.74,1.11C.31,13.4-.08,15.72.8,18.22Z"/><path class="cls-2" d="M44.34,13.9l-.08.08Z"/><path class="cls-2" d="M24.81,20.3l.08-.09Z"/><path class="cls-1" d="M54.66,14.59c.75-.14,1.52-.24,2.29-.32-3.42-1.56-7.09-2.27-10.34-1.46-8.76,2.19-15.2,21-26.5,19.92h0c6.06,2.48,11.44,1.27,15-2.14,3.87-3.75,6-8.48,9.18-11.15A23.42,23.42,0,0,1,54.66,14.59Z"/><path class="cls-1" d="M44.34,19.38c-.05,0-.08.07-.07.07A.46.46,0,0,1,44.34,19.38Z"/><path class="cls-1" d="M68.36,25.2A12.71,12.71,0,0,0,67,22.53a24.76,24.76,0,0,0-9.38-7.94L57,14.27c-.77.08-1.53.2-2.29.32a23.42,23.42,0,0,0-10.39,4.86s0,0,.07-.07a10.67,10.67,0,0,1,3.77-2.16,5.36,5.36,0,0,1,.54-.14,4.39,4.39,0,0,1,.91-.09,13.42,13.42,0,0,1,6.59,2.41,16.89,16.89,0,0,1,5.15,4.91c1.24,2,1.37,4-.28,5.44-2.64,2.37-14.72-1.48-15.74-1.82h0c.94.44,8.21,4.44,14.77,4.88a13.66,13.66,0,0,0,3.7-.19,8,8,0,0,0,2.77-1.09C68.82,30,69.23,27.71,68.36,25.2Z"/><path class="cls-1" d="M24.81,24l.08-.06Z"/><path class="cls-3" d="M54.66,7.31c.75-.18,1.52-.33,2.29-.44-3.42-2.14-7.09-3.12-10.34-2-8.76,3-15.2,28.84-26.5,27.37h0c6.06,3.42,11.44,1.75,15-2.93,3.87-5.15,6-11.65,9.18-15.33C44.14,14,48.93,8.6,54.66,7.31Z"/><path class="cls-2" d="M44.34,13.89c-.05.06-.08.09-.07.09A.71.71,0,0,0,44.34,13.89Z"/><path class="cls-4" d="M68.36,21.89A20.29,20.29,0,0,0,67,18.22,28.86,28.86,0,0,0,57.62,7.31c-.22-.16-.45-.3-.67-.44-.77.11-1.53.27-2.29.44C48.93,8.6,44.14,14,44.27,14s0,0,.07-.09a10.67,10.67,0,0,1,3.77-3c.18-.07.36-.14.54-.19a3.34,3.34,0,0,1,.91-.12c1.88,0,4.34,1.32,6.59,3.31a21,21,0,0,1,5.15,6.75c1.24,2.72,1.37,5.43-.28,7.46-2.64,3.26-14.72-2-15.74-2.49h0c.94.61,8.21,6.1,14.77,6.71a10.09,10.09,0,0,0,3.7-.26,7,7,0,0,0,2.77-1.5C68.82,28.51,69.23,25.33,68.36,21.89Z"/><path class="cls-2" d="M24.81,20.3l.08-.09Z"/><path class="cls-5" d="M14.12,26.74a21.84,21.84,0,0,1-2.28.44c3.41,2.14,7.09,3.12,10.33,2,8.76-3,15.2-28.84,26.51-27.37h0C42.6-1.6,37.22.06,33.7,4.75c-3.87,5.14-6,11.64-9.18,15.32C24.65,20.07,19.86,25.45,14.12,26.74Z"/><path class="cls-6" d="M.43,12.16a20.29,20.29,0,0,0,1.36,3.67,28.87,28.87,0,0,0,9.38,10.92l.67.43c.77-.11,1.52-.27,2.28-.44,5.74-1.29,10.53-6.67,10.4-6.67s0,0-.08.09a10.39,10.39,0,0,1-3.77,3,5.62,5.62,0,0,1-.53.19,3.41,3.41,0,0,1-.92.12c-1.87,0-4.33-1.32-6.59-3.31a21.23,21.23,0,0,1-5.15-6.75C6.25,10.66,6,7.91,7.67,5.87,10.31,2.61,22.52,8,23.31,8.32h0c-.58-.44-8.11-6.05-14.67-6.67A9.82,9.82,0,0,0,5,1.92,6.93,6.93,0,0,0,2.25,3.44C0,5.53-.45,8.72.43,12.16Z"/><path d="M75.18,4.66H73.05V2.16h2.13Zm0,8.58-2.13,2.1V6.83l2.13,0Zm7.19,2.29v2.13h-8l2.15-2.13Z"/><path d="M97.79,17.66H95.46L91.19,5.32,86.91,17.66H84.59l5.56-15.5h2.06Z"/><path d="M106.56,12.14H102.9v5.52h-2.12V10h5.8a2.78,2.78,0,0,0,2.9-2.88,2.79,2.79,0,0,0-2.9-2.9h-5.8V2.16h5.8a4.83,4.83,0,0,1,5.07,5,4.78,4.78,0,0,1-2.9,4.56l3.34,5.94h-2.41Z"/><path d="M128.41,9V15.4a7.26,7.26,0,0,1-6.6,2.41,7.66,7.66,0,0,1-7.28-7.88A7.59,7.59,0,0,1,121.86,2,9.1,9.1,0,0,1,128,3.79l-1.09,1.6a7.23,7.23,0,0,0-4.82-1.24,5.66,5.66,0,0,0-5.36,5.78A5.76,5.76,0,0,0,122,15.71a5.49,5.49,0,0,0,4.3-1.06V9Z"/><path d="M142.34,4.26H132.18V2.16h10.16Zm-.69,6.67h-9.47V8.87h9.47Zm.82,4.6v2.13H132.18V15.53Z"/><text class="cls-7" transform="translate(77.98 31.81)">ım<tspan class="cls-8" x="20.72" y="0">a</tspan><tspan class="cls-9" x="30.32" y="0">g</tspan><tspan x="40.41" y="0">es</tspan></text></g></g></svg>