<?xml version="1.0" encoding="utf-8"?>
<!-- Generator: Adobe Illustrator 22.1.0, SVG Export Plug-In . SVG Version: 6.00 Build 0)  -->
<svg version="1.1" id="katman_1" xmlns="http://www.w3.org/2000/svg" xmlns:xlink="http://www.w3.org/1999/xlink" x="0px" y="0px"
	 viewBox="0 0 142.5 35.8" style="enable-background:new 0 0 142.5 35.8;" xml:space="preserve">
<style type="text/css">
	.st0{fill:#7C7C7C;}
	.st1{fill:#E6E7E8;}
	.st2{fill:#808080;}
	.st3{fill:url(#SVGID_1_);}
	.st4{fill:url(#SVGID_2_);}
	.st5{fill:url(#SVGID_3_);}
	.st6{fill:url(#SVGID_4_);}
	.st7{fill:#EAFFD4;}
	.st8{font-family:'MADEEvolveSansEVO-Thin';}
	.st9{font-size:17.77px;}
</style>
<title>Varlık 5</title>
<path class="st0" d="M14.5,28.8c-0.8,0.1-1.5,0.2-2.3,0.3c3.4,1.6,7.1,2.3,10.3,1.5c8.8-2.2,15.2-21,26.5-19.9l0,0
	c-6-2.5-11.5-1.3-15,2.1c-3.9,3.8-6.1,8.5-9.2,11.2C21.9,26.4,18.3,28.1,14.5,28.8z"/>
<path class="st1" d="M24.8,24L24.8,24L24.8,24z"/>
<path class="st0" d="M0.8,18.2c0.3,0.9,0.8,1.8,1.4,2.7c2.4,3.4,5.6,6.2,9.4,8l0.7,0.3c0.8-0.1,1.5-0.2,2.3-0.3
	c3.8-0.8,7.4-2.4,10.4-4.9l-0.1,0.1c-1.1,1-2.4,1.7-3.8,2.1c-0.2,0.1-0.4,0.1-0.5,0.1c-0.3,0.1-0.6,0.1-0.9,0.1
	c-2.4-0.2-4.6-1.1-6.5-2.4c-2-1.3-3.8-2.9-5.2-4.9c-1.2-2-1.5-4,0.2-5.5c2.7-2.4,14.9,1.5,15.7,1.8l0,0C23.1,15.1,15.6,11,9,10.6
	c-1.2-0.1-2.4,0-3.7,0.2c-1,0.2-1.9,0.6-2.7,1.1C0.3,13.4-0.1,15.7,0.8,18.2z"/>
<path class="st2" d="M44.3,13.9L44.3,13.9L44.3,13.9z"/>
<path class="st2" d="M24.8,20.3L24.8,20.3L24.8,20.3z"/>
<path class="st0" d="M54.7,14.6c0.8-0.1,1.5-0.2,2.3-0.3c-3.4-1.6-7.1-2.3-10.3-1.5c-8.8,2.2-15.2,21-26.5,19.9l0,0
	c6.1,2.5,11.4,1.3,15-2.1c3.9-3.8,6-8.5,9.2-11.1C47.3,17,50.9,15.3,54.7,14.6z"/>
<path class="st1" d="M44.3,19.4C44.3,19.4,44.3,19.4,44.3,19.4C44.3,19.4,44.3,19.4,44.3,19.4z"/>
<path class="st0" d="M68.4,25.2c-0.3-0.9-0.8-1.8-1.4-2.7c-2.4-3.4-5.6-6.1-9.4-7.9L57,14.3c-0.8,0.1-1.5,0.2-2.3,0.3
	c-3.8,0.7-7.4,2.4-10.4,4.9c0,0,0,0,0.1-0.1c1.1-1,2.4-1.7,3.8-2.2c0.2-0.1,0.4-0.1,0.5-0.1C49,17,49.3,17,49.6,17
	c2.4,0.2,4.6,1,6.6,2.4c2,1.3,3.8,2.9,5.2,4.9c1.2,2,1.4,4-0.3,5.4c-2.6,2.4-14.7-1.5-15.7-1.8l0,0c0.9,0.4,8.2,4.4,14.8,4.9
	c1.2,0.1,2.5,0,3.7-0.2c1-0.2,1.9-0.6,2.8-1.1C68.8,30,69.2,27.7,68.4,25.2z"/>
<path class="st1" d="M24.8,24L24.8,24L24.8,24z"/>
<linearGradient id="SVGID_1_" gradientUnits="userSpaceOnUse" x1="-115.9724" y1="40.5896" x2="-116.1824" y2="16.7696" gradientTransform="matrix(1 0 -0.23 -1 158.94 38)">
	<stop  offset="0" style="stop-color:#FFFFFF"/>
	<stop  offset="0.4" style="stop-color:#A5CD39"/>
	<stop  offset="0.71" style="stop-color:#3D9842"/>
	<stop  offset="1" style="stop-color:#006231"/>
</linearGradient>
<path class="st3" d="M54.7,7.3C55.4,7.1,56.2,7,57,6.9c-3.4-2.1-7.1-3.1-10.3-2c-8.8,3-15.2,28.8-26.5,27.4l0,0
	c6.1,3.4,11.4,1.8,15-2.9c3.9-5.1,6-11.6,9.2-15.3C44.1,14,48.9,8.6,54.7,7.3z"/>
<path class="st2" d="M44.3,13.9C44.3,14,44.3,14,44.3,13.9C44.3,14,44.3,13.9,44.3,13.9z"/>
<radialGradient id="SVGID_2_" cx="-212.77" cy="17.24" r="11.99" gradientTransform="matrix(1 0 -0.4 -1 274.99 38)" gradientUnits="userSpaceOnUse">
	<stop  offset="0" style="stop-color:#FFFFFF"/>
	<stop  offset="0.4" style="stop-color:#A5CD39"/>
	<stop  offset="0.71" style="stop-color:#3D9842"/>
	<stop  offset="1" style="stop-color:#006231"/>
</radialGradient>
<path class="st4" d="M68.4,21.9c-0.3-1.3-0.8-2.5-1.4-3.7c-2.2-4.4-5.4-8.1-9.4-10.9C57.4,7.2,57.2,7,57,6.9
	c-0.8,0.1-1.5,0.3-2.3,0.4C48.9,8.6,44.1,14,44.3,14s0,0,0.1-0.1c1-1.3,2.3-2.3,3.8-3c0.2-0.1,0.4-0.1,0.5-0.2
	c0.3-0.1,0.6-0.1,0.9-0.1c1.9,0,4.3,1.3,6.6,3.3c2.2,1.9,3.9,4.2,5.2,6.8c1.2,2.7,1.4,5.4-0.3,7.5c-2.6,3.3-14.7-2-15.7-2.5l0,0
	c0.9,0.6,8.2,6.1,14.8,6.7c1.2,0.1,2.5,0.1,3.7-0.3c1-0.3,2-0.8,2.8-1.5C68.8,28.5,69.2,25.3,68.4,21.9z"/>
<path class="st2" d="M24.8,20.3L24.8,20.3L24.8,20.3z"/>
<linearGradient id="SVGID_3_" gradientUnits="userSpaceOnUse" x1="-128.7878" y1="39.1913" x2="-122.2778" y2="20.6713" gradientTransform="matrix(1 0 -0.23 -1 158.94 38)">
	<stop  offset="0" style="stop-color:#FFFFFF"/>
	<stop  offset="0.4" style="stop-color:#EE4023"/>
	<stop  offset="0.68" style="stop-color:#ED3024"/>
	<stop  offset="1" style="stop-color:#AD1B1F"/>
</linearGradient>
<path class="st5" d="M14.1,26.7c-0.8,0.2-1.5,0.3-2.3,0.4c3.4,2.1,7.1,3.1,10.3,2c8.8-3,15.2-28.8,26.5-27.4l0,0
	c-6.1-3.4-11.5-1.7-15,2.9c-3.9,5.1-6,11.6-9.2,15.3C24.6,20.1,19.9,25.5,14.1,26.7z"/>
<radialGradient id="SVGID_4_" cx="-251.18" cy="20.56" r="12.55" gradientTransform="matrix(1 0 -0.4 -1 274.99 38)" gradientUnits="userSpaceOnUse">
	<stop  offset="0" style="stop-color:#FFFFFF"/>
	<stop  offset="0.4" style="stop-color:#EE4023"/>
	<stop  offset="0.68" style="stop-color:#ED3024"/>
	<stop  offset="1" style="stop-color:#AD1B1F"/>
</radialGradient>
<path class="st6" d="M0.4,12.2c0.3,1.3,0.8,2.5,1.4,3.7c2.2,4.4,5.4,8.1,9.4,10.9l0.7,0.4c0.8-0.1,1.5-0.3,2.3-0.4
	c5.7-1.3,10.5-6.7,10.4-6.7s0,0-0.1,0.1c-1,1.3-2.3,2.3-3.8,3c-0.2,0.1-0.4,0.1-0.5,0.2c-0.3,0.1-0.6,0.1-0.9,0.1
	c-1.9,0-4.3-1.3-6.6-3.3c-2.2-1.9-3.9-4.2-5.2-6.8C6.3,10.7,6,7.9,7.7,5.9C10.3,2.6,22.5,8,23.3,8.3l0,0c-0.6-0.4-8.1-6.1-14.7-6.7
	C7.4,1.5,6.2,1.6,5,1.9C4,2.2,3,2.7,2.3,3.4C0,5.5-0.4,8.7,0.4,12.2z"/>
<path class="st7" d="M75.2,4.7h-2.1V2.2h2.1V4.7z M75.2,13.2l-2.1,2.1V6.8h2.1V13.2z M82.4,15.5v2.1h-8l2.2-2.1H82.4z"/>
<path class="st7" d="M97.8,17.7h-2.3L91.2,5.3l-4.3,12.3h-2.3l5.6-15.5h2.1L97.8,17.7z"/>
<path class="st7" d="M106.6,12.1h-3.7v5.5h-2.1V10h5.8c1.5,0.1,2.8-1.1,2.9-2.7c0-0.1,0-0.1,0-0.2c0.1-1.5-1.1-2.8-2.7-2.9
	c-0.1,0-0.1,0-0.2,0h-5.8V2.2h5.8c2.7-0.1,4.9,1.9,5.1,4.6c0,0.1,0,0.3,0,0.4c0.1,2-1.1,3.8-2.9,4.6l3.3,5.9h-2.4L106.6,12.1z"/>
<path class="st7" d="M128.4,9v6.4c-1.6,1.9-4.1,2.8-6.6,2.4c-4.2-0.2-7.4-3.7-7.3-7.9c-0.2-4.2,3.1-7.7,7.2-7.9c0,0,0.1,0,0.1,0
	c2.2-0.2,4.4,0.5,6.1,1.8l-1.1,1.6c-1.4-1-3.1-1.4-4.8-1.2c-3.1,0.2-5.4,2.7-5.4,5.8c0,3,2.3,5.5,5.3,5.8c1.5,0.3,3.1-0.1,4.3-1.1V9
	H128.4z"/>
<path class="st7" d="M142.3,4.3h-10.2V2.2h10.2V4.3z M141.6,10.9h-9.5V8.9h9.5V10.9z M142.5,15.5v2.1h-10.3v-2.1L142.5,15.5z"/>
<text transform="matrix(1 0 0 1 77.98 31.81)" class="st7 st8 st9">ım</text>
<text transform="matrix(1 0 0 1 98.7 31.81)" class="st7 st8 st9">a</text>
<text transform="matrix(1 0 0 1 108.3 31.81)" class="st7 st8 st9">g</text>
<text transform="matrix(1 0 0 1 118.39 31.81)" class="st7 st8 st9">es</text>
</svg>
